#!OML:ASF H:\Terrain\Patient Classification 1\Walking\liu\liu.ASF
:FULLY-SPECIFIED
:DEGREES
142
root 8.38172 16.6195 -6.27665 6.29202 0.733558 -0.963911
lowerback -3.19772 -0.770589 -2.37636
upperback -0.293537 -0.984854 2.55058
thorax 1.57697 -0.516447 3.91738
lowerneck -20.4713 -3.6368 -12.8454
upperneck 19.6231 -4.29357 13.5663
head 10.2294 -1.40064 6.41899
rclavicle -1.21756e-014 1.39149e-014
rhumerus -31.689 10.1276 -83.8901
rradius 28.7885
rwrist -13.1421
rhand -29.2824 -25.6515
rfingers 7.12502
rthumb -2.62443 -55.6151
lclavicle -1.21756e-014 1.39149e-014
lhumerus -38.2288 -15.5243 95.7294
lradius 28.4751
lwrist 4.62129
lhand -8.27492 -21.6627
lfingers 7.12502
lthumb 17.6443 7.55668
rfemur -21.5551 3.90536 25.5219
rtibia 36.7299
rfoot -19.6977 2.79445
rtoes -12.7229
lfemur -28.0705 6.43882 -20.0547
ltibia 67.7826
lfoot -13.3611 14.7095
ltoes -7.85998
143
root 8.3852 16.616 -6.10128 6.2062 0.370379 -0.994312
lowerback -3.13194 -0.554664 -2.36773
upperback -0.246441 -0.697796 2.53141
thorax 1.56343 -0.373099 3.90646
lowerneck -20.3051 -3.68592 -12.8131
upperneck 19.5739 -4.35573 13.4326
head 10.1861 -1.4467 6.34913
rclavicle 1.59028e-015 1.59028e-015
rhumerus -30.7337 10.6811 -84.0977
rradius 29.0831
rwrist -12.842
rhand -30.6263 -25.0132
rfingers 7.12502
rthumb -3.92228 -54.9568
lclavicle 1.59028e-015 1.59028e-015
lhumerus -39.4652 -16.3442 96.3029
lradius 28.5646
lwrist 4.58813
lhand -7.48871 -21.4144
lfingers 7.12502
lthumb 18.4007 7.7353
rfemur -20.5418 4.20863 25.6245
rtibia 36.2562
rfoot -20.0833 2.78615
rtoes -11.8865
lfemur -29.4767 6.37265 -20.2471
ltibia 66.8751
lfoot -14.2948 14.4367
ltoes -7.88947
144
root 8.3894 16.6125 -5.92365 6.04347 -0.0325609 -1.1593
lowerback -2.85131 -0.343616 -2.26226
upperback -0.327355 -0.422852 2.5723
thorax 1.29883 -0.229217 3.9025
lowerneck -19.9679 -3.62335 -12.8821
upperneck 19.6358 -4.31059 13.5105
head 10.1411 -1.43333 6.39729
rclavicle -7.92654e-015 -6.36111e-015
rhumerus -30.1002 11.6201 -84.3765
rradius 29.5179
rwrist -12.8131
rhand -31.9105 -25.3959
rfingers 7.12502
rthumb -5.16233 -55.313
lclavicle -7.92654e-015 -6.36111e-015
lhumerus -40.995 -16.5599 96.8294
lradius 28.8523
lwrist 4.48059
lhand -8.13404 -21.5692
lfingers 7.12502
lthumb 17.7799 7.63799
rfemur -19.4189 4.78758 25.8523
rtibia 35.7281
rfoot -20.534 2.72505
rtoes -11.4573
lfemur -30.7218 6.36645 -20.2352
ltibia 65.7852
lfoot -15.1558 14.1735
ltoes -6.44103
145
root 8.39488 16.6245 -5.74808 6.12021 -0.383119 -1.41525
lowerback -2.77545 -0.185796 -2.11633
upperback -0.440885 -0.21803 2.71261
thorax 1.1223 -0.121655 3.97353
lowerneck -19.8713 -3.58294 -13.0135
upperneck 19.7542 -4.22806 13.4863
head 10.1542 -1.41153 6.42777
rclavicle -6.55989e-015 1.27222e-014
rhumerus -29.6429 13.2896 -84.6257
rradius 30.3439
rwrist -13.8649
rhand -32.5404 -26.2926
rfingers 7.12502
rthumb -5.77046 -56.194
lclavicle -6.55989e-015 1.27222e-014
lhumerus -42.2895 -16.6074 97.3875
lradius 29.0081
lwrist 4.63074
lhand -8.72839 -21.5787
lfingers 7.12502
lthumb 17.2079 7.67938
rfemur -18.5106 5.32073 26.152
rtibia 35.2019
rfoot -20.8563 2.56209
rtoes -11.9784
lfemur -32.2071 6.24454 -20.0509
ltibia 64.5128
lfoot -16.1914 13.8806
ltoes -2.54261
146
root 8.39658 16.633 -5.57551 6.21672 -0.605074 -1.65983
lowerback -2.73633 -0.0405543 -1.97315
upperback -0.472079 -0.0295841 2.8268
thorax 1.05234 -0.0253002 4.01775
lowerneck -20.0242 -3.64663 -13.1045
upperneck 19.8246 -4.25648 13.4059
head 10.2126 -1.43615 6.4135
rclavicle -2.93207e-015 -2.42517e-014
rhumerus -29.0993 14.7648 -84.7788
rradius 31.2982
rwrist -14.7803
rhand -32.3837 -26.7445
rfingers 7.12502
rthumb -5.61919 -56.65
lclavicle -2.93207e-015 -2.42517e-014
lhumerus -43.3525 -16.8178 97.7919
lradius 29.0658
lwrist 4.29908
lhand -8.96122 -21.9885
lfingers 7.12502
lthumb 16.9838 7.28895
rfemur -17.645 5.55316 26.4803
rtibia 34.6932
rfoot -20.9214 2.51654
rtoes -12.1287
lfemur -33.5183 6.16018 -19.8468
ltibia 63.0823
lfoot -17.144 13.4926
ltoes -1.1386
147
root 8.39755 16.6326 -5.3903 6.18881 -0.851716 -1.51556
lowerback -2.70214 0.134295 -2.20703
upperback -0.456442 0.210928 2.77102
thorax 1.02822 0.0946851 4.10093
lowerneck -20.1907 -3.80645 -13.1765
upperneck 19.983 -4.45974 13.4329
head 10.3353 -1.52805 6.41494
rclavicle 1.04362e-015 -2.26615e-014
rhumerus -28.3353 15.7895 -84.9261
rradius 31.8199
rwrist -15.1541
rhand -31.6505 -26.3075
rfingers 7.12502
rthumb -4.91127 -56.2306
lclavicle 1.04362e-015 -2.26615e-014
lhumerus -44.6177 -17.1619 98.1347
lradius 29.4679
lwrist 4.31083
lhand -8.90274 -22.5774
lfingers 7.12502
lthumb 17.0401 6.69523
rfemur -16.5846 5.55105 26.4062
rtibia 34.0984
rfoot -21.0934 2.8359
rtoes -11.0344
lfemur -34.387 6.14032 -20.1615
ltibia 61.4234
lfoot -17.4452 13.5934
ltoes -4.69818
148
root 8.40307 16.6507 -5.19699 6.1205 -1.18531 -1.24609
lowerback -2.81742 0.290065 -2.5229
upperback -0.299924 0.429875 2.64226
thorax 1.23316 0.197147 4.15604
lowerneck -20.5091 -3.90987 -13.0794
upperneck 20.176 -4.61637 13.4373
head 10.4876 -1.58274 6.38769
rclavicle -6.06293e-015 -2.54444e-014
rhumerus -27.287 16.8551 -85.0851
rradius 32.3339
rwrist -15.5623
rhand -31.1906 -25.8924
rfingers 7.12502
rthumb -4.46715 -55.8253
lclavicle -6.06293e-015 -2.54444e-014
lhumerus -45.55 -17.3483 98.2647
lradius 29.7538
lwrist 4.83462
lhand -8.77418 -23.2151
lfingers 7.12502
lthumb 17.1638 6.04685
rfemur -15.3072 5.63183 26.1269
rtibia 33.327
rfoot -21.5343 3.00822
rtoes -10.7474
lfemur -35.2101 6.03561 -20.5851
ltibia 59.5738
lfoot -17.6798 13.7024
ltoes -5.20758
149
root 8.40468 16.6825 -5.01545 6.0959 -1.54296 -1.26729
lowerback -2.81162 0.471572 -2.542
upperback -0.181176 0.672828 2.5696
thorax 1.33057 0.315172 4.10126
lowerneck -20.6012 -3.89261 -12.9015
upperneck 20.0968 -4.63793 13.4639
head 10.4764 -1.5721 6.36065
rclavicle -6.5102e-015 -2.66371e-014
rhumerus -26.5948 17.875 -85.2312
rradius 33.6048
rwrist -16.1327
rhand -31.2003 -26.4246
rfingers 7.12502
rthumb -4.47654 -56.3573
lclavicle -6.5102e-015 -2.66371e-014
lhumerus -46.2641 -17.3218 98.1479
lradius 29.7504
lwrist 4.68179
lhand -8.74928 -23.7098
lfingers 7.12502
lthumb 17.1878 5.55005
rfemur -14.0839 6.00252 26.1808
rtibia 32.4612
rfoot -21.8896 2.63651
rtoes -11.9447
lfemur -36.2465 5.95748 -20.5346
ltibia 57.6034
lfoot -17.7555 13.3892
ltoes -3.44592
150
root 8.40543 16.6898 -4.84189 6.24185 -1.89041 -1.70587
lowerback -2.86991 0.743723 -2.05526
upperback -0.196011 1.02117 2.58779
thorax 1.32476 0.492672 3.85796
lowerneck -20.5024 -3.98072 -12.8092
upperneck 19.932 -4.77126 13.3915
head 10.4151 -1.63671 6.28786
rclavicle -2.5345e-015 1.11319e-014
rhumerus -26.0235 18.4694 -85.2015
rradius 34.8001
rwrist -16.4822
rhand -31.0392 -26.47
rfingers 7.12502
rthumb -4.32099 -56.4059
lclavicle -2.5345e-015 1.11319e-014
lhumerus -47.2823 -17.5227 98.2537
lradius 29.8778
lwrist 4.5196
lhand -8.94835 -23.8746
lfingers 7.12502
lthumb 16.9962 5.40184
rfemur -13.0899 6.30826 26.7644
rtibia 31.481
rfoot -21.9911 2.27212
rtoes -13.0221
lfemur -37.4738 6.15615 -20.0843
ltibia 55.5476
lfoot -17.3596 13.3568
ltoes -7.83377
151
root 8.40884 16.6722 -4.67166 6.5075 -2.10887 -2.19683
lowerback -3.03612 0.954427 -1.54808
upperback -0.287256 1.28652 2.67398
thorax 1.31158 0.629506 3.67247
lowerneck -20.2758 -4.1405 -12.9251
upperneck 19.7678 -4.97092 13.3844
head 10.3477 -1.74523 6.26572
rclavicle 5.54112e-015 1.66979e-014
rhumerus -25.3676 19.1841 -85.0813
rradius 35.6004
rwrist -16.8743
rhand -30.7092 -26.2782
rfingers 7.12502
rthumb -4.00233 -56.2203
lclavicle 5.54112e-015 1.66979e-014
lhumerus -48.565 -17.819 98.7066
lradius 30.1346
lwrist 5.30205
lhand -9.41672 -24.1014
lfingers 7.12502
lthumb 16.5453 5.21323
rfemur -12.2187 6.52516 27.3807
rtibia 30.4263
rfoot -22.1698 2.10992
rtoes -13.8259
lfemur -38.7238 6.43374 -19.6859
ltibia 53.3695
lfoot -16.921 13.2576
ltoes -11.2061
152
root 8.41542 16.6768 -4.48711 6.61066 -2.32925 -2.28159
lowerback -3.07566 1.06717 -1.53828
upperback -0.371318 1.43745 2.71674
thorax 1.2352 0.707232 3.71661
lowerneck -20.0361 -4.18829 -13.149
upperneck 19.682 -5.02978 13.5485
head 10.2923 -1.77908 6.35328
rclavicle -4.72114e-015 -1.19271e-015
rhumerus -24.7788 20.3226 -85.0448
rradius 36.3525
rwrist -17.6469
rhand -30.7531 -26.6297
rfingers 7.12502
rthumb -4.04473 -56.571
lclavicle -4.72114e-015 -1.19271e-015
lhumerus -49.7216 -17.6539 98.9897
lradius 30.2392
lwrist 6.09649
lhand -9.6897 -24.7462
lfingers 7.12502
lthumb 16.2824 4.59017
rfemur -11.0715 6.57422 27.4748
rtibia 29.4081
rfoot -22.3664 2.25411
rtoes -13.3328
lfemur -39.4153 6.48996 -19.6696
ltibia 50.9587
lfoot -16.9228 12.7785
ltoes -10.0375
153
root 8.42297 16.6882 -4.29444 6.6164 -2.68893 -2.25577
lowerback -3.09211 1.19148 -1.66597
upperback -0.385654 1.60787 2.72972
thorax 1.21288 0.792527 3.8088
lowerneck -20.0022 -4.13921 -13.2168
upperneck 19.6802 -4.97668 13.6852
head 10.2829 -1.74582 6.42528
rclavicle 4.09993e-015 2.70347e-014
rhumerus -24.0402 21.464 -85.0043
rradius 37.06
rwrist -18.4503
rhand -31.0906 -27.6382
rfingers 7.12502
rthumb -4.37064 -57.5731
lclavicle 4.09993e-015 2.70347e-014
lhumerus -50.5426 -16.925 98.7505
lradius 30.2375
lwrist 5.96943
lhand -9.3444 -25.2509
lfingers 7.12502
lthumb 16.6149 4.05791
rfemur -9.77725 6.38461 27.4518
rtibia 28.4371
rfoot -22.425 2.40881
rtoes -13.783
lfemur -39.7861 6.5799 -19.7578
ltibia 48.3812
lfoot -16.8121 12.5365
ltoes -9.86846
154
root 8.42301 16.6868 -4.1105 6.77991 -3.09207 -2.26313
lowerback -3.28527 1.37105 -1.85135
upperback -0.39813 1.85483 2.76152
thorax 1.28197 0.914438 3.96132
lowerneck -20.0503 -4.15252 -13.271
upperneck 19.7881 -5.0079 13.7883
head 10.3402 -1.75166 6.47491
rclavicle -3.75206e-015 -1.15295e-014
rhumerus -23.3474 22.3867 -84.8386
rradius 38.0091
rwrist -19.3237
rhand -31.8432 -28.4922
rfingers 7.12502
rthumb -5.09732 -58.4109
lclavicle -3.75206e-015 -1.15295e-014
lhumerus -51.3398 -16.4273 98.5815
lradius 30.3482
lwrist 5.90962
lhand -8.95903 -24.9584
lfingers 7.12502
lthumb 16.9859 4.31896
rfemur -8.6994 6.48963 27.4826
rtibia 27.3807
rfoot -22.2375 2.43113
rtoes -14.3936
lfemur -40.425 6.89048 -19.8668
ltibia 45.7026
lfoot -16.2813 12.539
ltoes -12.3908
155
root 8.4193 16.6828 -3.92304 6.90804 -3.46029 -2.42713
lowerback -3.46886 1.58634 -1.88958
upperback -0.414133 2.14397 2.83513
thorax 1.34035 1.05826 4.07648
lowerneck -19.9773 -4.23291 -13.3205
upperneck 19.9194 -5.12162 13.7649
head 10.3924 -1.81319 6.46276
rclavicle -9.93923e-017 6.75868e-015
rhumerus -22.8939 23.186 -84.5971
rradius 39.1442
rwrist -20.1992
rhand -32.2724 -28.2068
rfingers 7.12502
rthumb -5.51175 -58.1151
lclavicle -9.93923e-017 6.75868e-015
lhumerus -52.1903 -16.4898 98.7033
lradius 30.3583
lwrist 6.40713
lhand -8.90668 -24.6502
lfingers 7.12502
lthumb 17.0363 4.62275
rfemur -7.51802 6.84131 27.6862
rtibia 26.2209
rfoot -21.952 2.62062
rtoes -12.179
lfemur -40.9864 7.04979 -19.6804
ltibia 43.0052
lfoot -15.8323 12.3937
ltoes -17.14
